<?xml version="1.0" encoding="iso-8859-1"?>
<!-- Generator: Adobe Illustrator 19.0.0, SVG Export Plug-In . SVG Version: 6.00 Build 0)  -->
<svg version="1.1" id="Capa_1" xmlns="http://www.w3.org/2000/svg" xmlns:xlink="http://www.w3.org/1999/xlink" x="0px" y="0px"
	 viewBox="0 0 512 512" style="enable-background:new 0 0 512 512;" xml:space="preserve">
<g>
	<g>
		<path d="M477.399,133.532c-5.215,0-10.163,1.159-14.602,3.234V62.578c0-19.079-15.522-34.601-34.601-34.601
			c-5.494,0-10.692,1.287-15.311,3.575c-1.406-6.877-4.854-13.301-9.925-18.277c-6.681-6.556-15.433-10.084-24.633-9.896
			c-18.712,0.355-33.936,15.875-33.936,34.595v5.538c-4.439-2.075-9.386-3.234-14.601-3.234c-19.079,0-34.601,15.522-34.601,34.601
			v15.634c-4.253-2.004-8.972-3.166-13.936-3.26c-9.223-0.19-17.966,3.345-24.646,9.911c-0.208,0.204-0.404,0.418-0.607,0.627
			c-0.208-0.215-0.411-0.435-0.624-0.645c-6.682-6.555-15.446-10.08-24.631-9.894c-4.964,0.094-9.683,1.255-13.936,3.26V74.879
			c0-19.079-15.522-34.601-34.601-34.601c-5.215,0-10.162,1.159-14.601,3.234v-5.538c0-18.721-15.224-34.24-33.936-34.595
			c-9.191-0.191-17.951,3.34-24.632,9.896c-5.071,4.976-8.52,11.4-9.925,18.277c-4.618-2.289-9.816-3.575-15.311-3.575
			c-19.079,0-34.601,15.522-34.601,34.601v74.188c-4.439-2.075-9.387-3.234-14.601-3.234C15.522,133.532,0,149.054,0,168.134
			v126.817c0,29.378,14.031,57.44,37.532,75.068c5.605,4.205,19.099,24.732,28.489,40.709c-3.135,1.688-5.267,4.999-5.267,8.809
			v79.091c0,5.523,4.477,10,10,10h140.963c5.523,0,10-4.477,10-10v-73.429c7.701,4.972,14.408,9.162,19.501,12.341
			c2.459,1.535,4.493,2.805,6.021,3.78c2.63,1.679,5.647,2.518,8.664,2.518c3.003,0,6.006-0.832,8.628-2.496
			c1.515-0.961,3.525-2.209,5.951-3.716c5.16-3.204,11.974-7.438,19.801-12.469v73.47c0,5.523,4.477,10,10,10h140.963
			c5.523,0,10-4.477,10-10v-79.091c0-3.81-2.132-7.121-5.267-8.809c9.39-15.977,22.883-36.504,28.488-40.709
			C497.969,352.392,512,324.329,512,294.951V168.134C512,149.054,496.478,133.532,477.399,133.532z M329.791,60.278
			c8.051,0,14.601,6.55,14.601,14.602v86.252c-0.502-0.098-0.997-0.215-1.501-0.305c-6.185-1.113-12.569-1.682-19.081-1.682
			c-1.519,0-3.001,0.039-4.465,0.095c-0.365,0.014-0.729,0.029-1.091,0.047c-1.035,0.05-2.055,0.113-3.063,0.19V121.85V74.879
			h-0.001C315.19,66.828,321.74,60.278,329.791,60.278z M266.012,122.405v-0.021h0.001c-0.007-4.071,1.675-8.065,4.616-10.955
			c2.815-2.766,6.468-4.233,10.247-4.178c7.893,0.15,14.315,6.698,14.315,14.598v41.242c-0.631,0.189-1.255,0.382-1.871,0.582
			c-0.286,0.093-0.571,0.186-0.854,0.282c-1.093,0.368-2.172,0.747-3.219,1.148c-0.046,0.018-0.089,0.037-0.135,0.054
			c-1.014,0.391-2,0.801-2.971,1.221c-0.261,0.113-0.52,0.226-0.778,0.341c-0.988,0.44-1.961,0.889-2.904,1.357
			c-0.05,0.025-0.098,0.052-0.149,0.077c-0.906,0.452-1.786,0.919-2.652,1.394c-0.236,0.129-0.471,0.259-0.704,0.39
			c-0.887,0.499-1.76,1.005-2.605,1.526c-0.051,0.031-0.1,0.064-0.151,0.096c-0.807,0.5-1.591,1.012-2.361,1.53
			c-0.21,0.142-0.42,0.283-0.627,0.426c-0.793,0.545-1.572,1.096-2.324,1.656c-0.05,0.037-0.098,0.076-0.147,0.113
			c-0.715,0.536-1.407,1.079-2.087,1.627c-0.187,0.151-0.373,0.301-0.557,0.453c-0.702,0.577-1.392,1.158-2.056,1.746
			c-0.009,0.008-0.018,0.015-0.027,0.023V122.405z M216.81,121.848c0-7.9,6.422-14.448,14.316-14.598
			c3.813-0.052,7.428,1.411,10.245,4.174c2.951,2.895,4.643,6.896,4.643,10.979v56.884c-0.029-0.026-0.06-0.05-0.089-0.076
			c-0.662-0.589-1.346-1.173-2.047-1.753c-0.17-0.14-0.343-0.28-0.515-0.42c-0.628-0.51-1.269-1.015-1.927-1.515
			c-0.118-0.089-0.231-0.18-0.35-0.269c-0.75-0.563-1.524-1.116-2.314-1.662c-0.195-0.135-0.393-0.267-0.59-0.401
			c-0.715-0.485-1.445-0.963-2.194-1.432c-0.121-0.076-0.238-0.154-0.36-0.229c-0.843-0.523-1.712-1.032-2.598-1.533
			c-0.221-0.125-0.445-0.248-0.668-0.371c-0.811-0.448-1.637-0.887-2.484-1.315c-0.12-0.061-0.236-0.124-0.357-0.184
			c-0.942-0.469-1.911-0.922-2.897-1.364c-0.248-0.111-0.498-0.22-0.749-0.329c-0.917-0.4-1.85-0.788-2.806-1.162
			c-0.113-0.044-0.223-0.091-0.336-0.135c-1.046-0.403-2.122-0.785-3.215-1.155c-0.275-0.093-0.553-0.184-0.831-0.274
			c-0.618-0.202-1.244-0.398-1.877-0.588V121.848z M167.607,74.88c0.001-8.051,6.551-14.602,14.602-14.602
			c8.051,0,14.601,6.55,14.601,14.601v84.601c-1.027-0.079-2.067-0.144-3.122-0.195c-0.359-0.017-0.719-0.033-1.081-0.046
			c-1.47-0.057-2.957-0.096-4.483-0.096c-7.021,0-13.884,0.684-20.517,1.976V74.88z M49.533,354.02
			C31.04,340.149,20,318.067,20,294.951V168.134c0-8.051,6.55-14.602,14.601-14.602c8.051,0,14.601,6.55,14.601,14.602
			c0,0.124,0.014,0.245,0.019,0.368V251c0,5.523,4.477,10,10,10s10-4.477,10-10L69.203,62.578c0-8.051,6.55-14.601,14.601-14.601
			c8.051,0,14.602,6.55,14.602,14.601v67.756c0,5.523,4.477,10,10,10s10-4.477,10-10V38.528c0-4.082,1.692-8.083,4.642-10.978
			c2.817-2.764,6.474-4.227,10.245-4.175c7.894,0.15,14.315,6.699,14.315,14.599v129.243c-10.029,4.277-19.162,10.182-26.987,17.588
			c-19.084,18.064-29.171,43.41-29.171,73.297c0,9.712,0.79,18.642,2.429,27.189c-4.443-0.861-9.026-1.327-13.717-1.327H78.22
			c-5.523,0-10,4.477-10,10s4.477,10,10,10h1.942c8.725,0,16.948,2.172,24.175,5.988c0.684,0.361,1.356,0.737,2.02,1.127
			c0.208,0.122,0.42,0.236,0.626,0.361c0.848,0.514,1.679,1.053,2.492,1.613c0.196,0.135,0.387,0.277,0.582,0.414
			c0.684,0.485,1.358,0.982,2.016,1.498c0.15,0.117,0.3,0.234,0.449,0.353c11.166,8.953,18.385,22.32,19.437,36.772
			c0.001,0.015,0.004,0.03,0.005,0.045c0.091,1.252,0.153,2.512,0.153,3.786v53.617H88.293
			C80.623,395.769,61.138,362.726,49.533,354.02z M80.753,488.628v-59.091h1.585h115.19h4.188v59.091H80.753z M152.119,409.537
			v-35.178c13.543,11.652,28.309,22.712,42.229,32.466l-1.948,2.712H152.119z M297.965,396.114c-0.068,0.046-0.129,0.1-0.195,0.147
			c-15.331,10.397-29.041,18.913-37.838,24.376c-1.502,0.933-2.85,1.77-4.023,2.503c-1.193-0.75-2.566-1.607-4.099-2.564
			c-8.749-5.462-22.363-13.966-37.59-24.33c-0.058-0.041-0.111-0.088-0.17-0.129c-26.121-17.804-47.138-34.391-62.532-49.347
			c-0.005-0.042-0.013-0.084-0.018-0.127c-2.155-16.657-10.02-31.538-21.572-42.62c-0.122-0.117-0.244-0.233-0.367-0.35
			c-0.606-0.573-1.22-1.138-1.846-1.69c-0.439-0.39-0.882-0.775-1.332-1.154c-0.286-0.24-0.571-0.479-0.861-0.715
			c-0.723-0.591-1.456-1.169-2.203-1.733c-0.122-0.092-0.246-0.181-0.369-0.273c-1.753-1.304-3.57-2.532-5.448-3.677
			c-0.034-0.021-0.069-0.042-0.103-0.063c-0.229-0.139-0.454-0.283-0.685-0.419c-3.585-11.07-5.265-22.565-5.265-35.848
			c0-54.544,38.51-78.959,76.675-78.959c4.397,0,8.486,0.301,12.29,0.85c2.667,0.385,5.184,0.898,7.576,1.508
			c0.355,0.091,0.707,0.184,1.056,0.279c20.777,5.662,31.175,19.204,35.923,28.09c0.137,0.256,0.282,0.505,0.435,0.749
			c0.116,0.185,0.24,0.362,0.364,0.54c0.036,0.052,0.07,0.106,0.107,0.157c1.476,2.042,3.511,3.546,5.834,4.37
			c0.035,0.013,0.07,0.025,0.105,0.038c0.2,0.069,0.402,0.132,0.605,0.191c0.095,0.028,0.191,0.054,0.287,0.08
			c0.148,0.039,0.296,0.075,0.446,0.108c0.164,0.037,0.328,0.07,0.494,0.101c0.087,0.016,0.174,0.031,0.262,0.045
			c0.239,0.039,0.479,0.07,0.721,0.094c0.021,0.002,0.041,0.005,0.062,0.007c0.398,0.039,0.799,0.065,1.204,0.066
			c0.003,0,0.006,0,0.009,0c1.269,0,2.506-0.199,3.68-0.562c0.043-0.013,0.085-0.027,0.127-0.04
			c0.439-0.141,0.869-0.305,1.287-0.493c0.097-0.044,0.193-0.09,0.289-0.135c0.369-0.177,0.729-0.369,1.078-0.582
			c0.121-0.074,0.238-0.152,0.357-0.23c0.325-0.214,0.643-0.439,0.947-0.683c0.109-0.087,0.212-0.18,0.318-0.271
			c0.307-0.264,0.606-0.539,0.887-0.834c0.072-0.075,0.138-0.155,0.208-0.232c0.302-0.333,0.592-0.68,0.859-1.048
			c0.028-0.038,0.052-0.079,0.08-0.118c0.293-0.414,0.565-0.846,0.809-1.299c6.156-11.482,21.745-30.743,56.979-30.743
			c38.198,0,76.741,24.415,76.741,78.959c0,11.63-1.28,21.881-3.99,31.666c-0.387,1.398-0.803,2.786-1.249,4.168
			c-0.232,0.137-0.459,0.282-0.69,0.422c-0.049,0.03-0.098,0.06-0.146,0.09c-1.491,0.91-2.948,1.866-4.361,2.877
			c-0.359,0.257-0.711,0.523-1.065,0.786c-0.121,0.09-0.244,0.178-0.364,0.269c-0.75,0.565-1.486,1.146-2.211,1.739
			c-0.284,0.231-0.564,0.465-0.844,0.7c-0.47,0.397-0.935,0.8-1.394,1.208c-0.594,0.525-1.177,1.062-1.754,1.606
			c-0.148,0.14-0.296,0.281-0.443,0.422c-11.546,11.09-19.403,25.978-21.546,42.641c-0.007,0.052-0.016,0.104-0.022,0.157
			C345.062,361.831,324.054,378.388,297.965,396.114z M359.881,374.433v35.104H319.6l-1.937-2.696
			C331.582,397.115,346.338,386.082,359.881,374.433z M431.247,488.628H310.283v-59.091h4.188h115.19h1.586V488.628z
			 M492.001,294.951H492c0,23.116-11.04,45.198-29.533,59.069c-11.605,8.706-31.091,41.749-38.76,55.517h-43.826V355.92
			c0-1.253,0.06-2.491,0.148-3.721c0.001-0.015,0.004-0.031,0.005-0.046c1.036-14.479,8.256-27.869,19.439-36.834
			c0.155-0.124,0.311-0.245,0.467-0.367c0.657-0.514,1.33-1.011,2.013-1.494c0.193-0.136,0.383-0.277,0.578-0.411
			c0.816-0.561,1.649-1.101,2.5-1.616c0.204-0.123,0.415-0.237,0.62-0.357c0.669-0.392,1.348-0.772,2.037-1.135
			c7.22-3.808,15.435-5.974,24.15-5.974h1.942c5.523,0,10-4.477,10-10s-4.477-10-10-10h-1.942c-4.688,0-9.267,0.465-13.707,1.326
			c1.633-8.541,2.419-17.471,2.419-27.187c0-9.339-0.986-18.235-2.926-26.605c-4.267-18.412-13.146-34.274-26.282-46.696
			c-7.818-7.392-16.937-13.288-26.95-17.563V37.974c0-7.9,6.422-14.449,14.315-14.599c3.768-0.071,7.429,1.411,10.246,4.175
			c2.95,2.895,4.642,6.896,4.642,10.978v91.806c0,5.523,4.477,10,10,10s10-4.477,10-10V62.578c0-8.051,6.55-14.601,14.602-14.601
			s14.601,6.55,14.601,14.601l-0.001,188.277c0,5.523,4.477,10,10,10s10-4.477,10-10v-82.692c0-0.01,0.001-0.019,0.001-0.029
			c0-8.051,6.55-14.602,14.602-14.602c8.051,0,14.601,6.55,14.601,14.602V294.951z"/>
	</g>
</g>
<g>
	<g>
		<path d="M118.21,162.068c-0.13-0.64-0.32-1.26-0.57-1.87c-0.25-0.6-0.56-1.18-0.92-1.72c-0.37-0.55-0.78-1.06-1.24-1.53
			c-0.47-0.46-0.98-0.87-1.52-1.24c-0.55-0.36-1.13-0.67-1.73-0.92c-0.6-0.25-1.23-0.44-1.87-0.57c-3.25-0.65-6.7,0.41-9.03,2.73
			c-0.461,0.47-0.87,0.98-1.24,1.53c-0.36,0.54-0.67,1.12-0.92,1.72c-0.25,0.61-0.44,1.23-0.57,1.87c-0.13,0.65-0.19,1.3-0.19,1.96
			c0,2.63,1.06,5.21,2.92,7.07c0.47,0.461,0.98,0.881,1.52,1.24c0.55,0.36,1.13,0.67,1.73,0.92c0.6,0.25,1.23,0.441,1.87,0.57
			c0.65,0.13,1.3,0.2,1.96,0.2c0.65,0,1.3-0.07,1.95-0.2c0.64-0.13,1.27-0.32,1.87-0.57c0.6-0.25,1.18-0.559,1.73-0.92
			c0.54-0.36,1.05-0.78,1.52-1.24c1.86-1.86,2.92-4.44,2.92-7.07C118.4,163.368,118.34,162.718,118.21,162.068z"/>
	</g>
</g>
<g>
	<g>
		<path d="M413.4,162.069c-0.13-0.64-0.32-1.26-0.57-1.87c-0.25-0.6-0.56-1.18-0.92-1.72c-0.37-0.55-0.78-1.06-1.24-1.53
			c-0.47-0.46-0.98-0.87-1.52-1.24c-0.55-0.36-1.13-0.67-1.73-0.92c-0.6-0.25-1.23-0.44-1.87-0.57c-1.29-0.26-2.62-0.26-3.91,0
			c-0.64,0.13-1.27,0.32-1.87,0.57c-0.6,0.25-1.18,0.56-1.73,0.92c-0.54,0.37-1.06,0.78-1.52,1.24c-0.46,0.47-0.88,0.98-1.24,1.53
			c-0.36,0.54-0.67,1.12-0.92,1.72c-0.25,0.61-0.44,1.23-0.57,1.87c-0.13,0.65-0.2,1.31-0.2,1.96s0.07,1.31,0.2,1.95
			s0.32,1.27,0.57,1.87s0.56,1.19,0.92,1.73c0.36,0.55,0.78,1.06,1.24,1.52c0.46,0.46,0.98,0.88,1.52,1.24
			c0.55,0.36,1.13,0.67,1.73,0.92c0.6,0.25,1.23,0.441,1.87,0.57c0.65,0.13,1.3,0.2,1.95,0.2c0.66,0,1.31-0.07,1.96-0.2
			c0.64-0.13,1.27-0.32,1.87-0.57c0.6-0.25,1.18-0.559,1.73-0.92c0.54-0.36,1.05-0.78,1.52-1.24c0.46-0.46,0.87-0.97,1.24-1.52
			c0.36-0.54,0.67-1.13,0.92-1.73s0.44-1.23,0.57-1.87s0.2-1.3,0.2-1.95C413.6,163.379,413.53,162.719,413.4,162.069z"/>
	</g>
</g>
<g>
</g>
<g>
</g>
<g>
</g>
<g>
</g>
<g>
</g>
<g>
</g>
<g>
</g>
<g>
</g>
<g>
</g>
<g>
</g>
<g>
</g>
<g>
</g>
<g>
</g>
<g>
</g>
<g>
</g>
</svg>
